<?xml version="1.0" encoding="utf-8"?>
<!-- Generator: Adobe Illustrator 23.0.0, SVG Export Plug-In . SVG Version: 6.00 Build 0)  -->
<svg version="1.1" id="Layer_1" xmlns="http://www.w3.org/2000/svg" xmlns:xlink="http://www.w3.org/1999/xlink" x="0px" y="0px"
	 viewBox="0 0 352.5 121.4" style="enable-background:new 0 0 352.5 121.4;" xml:space="preserve">
<style type="text/css">
	.st0{fill:none;}
	.st1{fill:#FFFFFF;}
</style>
<title>Asset 1</title>
<g>
	<g id="Layer_2-2">
		<path class="st0" d="M80.9,65.9c-11,0-19.9,8.9-19.9,19.9s8.9,19.9,19.9,19.9s19.9-8.9,19.9-19.9c0,0,0,0,0,0
			C100.7,74.9,91.8,66,80.9,65.9z"/>
		<path class="st0" d="M157.3,87.8c-2.1-1-4.4-1.5-6.7-1.4h-5.3v23h5.3c2.3,0.1,4.6-0.4,6.7-1.4c1.6-0.9,2.9-2.3,3.6-3.9
			c0.8-1.9,1.1-4,1.1-6.1c0.1-2.1-0.3-4.2-1.1-6.2C160.2,90,158.9,88.6,157.3,87.8z"/>
		<path class="st0" d="M194.7,68.8c1,0.6,2.1,0.9,3.3,0.9c2.4,0,4.7-1.3,5.8-3.5c0.7-1.3,1-2.8,1-4.3c0.1-1.5-0.3-3-0.9-4.3
			c-0.6-1.1-1.4-2-2.5-2.6c-1-0.6-2.2-0.9-3.4-0.9c-2.5,0-4.7,1.3-5.8,3.5c-1.3,2.8-1.3,5.9,0,8.7C192.7,67.3,193.6,68.2,194.7,68.8
			z"/>
		<path class="st0" d="M180.3,94.4c-1.6,0-3.2,0.5-4.4,1.5c-1.3,1.1-2.1,2.7-2.2,4.4h13c0-1.7-0.7-3.2-1.9-4.4
			C183.5,94.9,181.9,94.4,180.3,94.4z"/>
		<path class="st0" d="M223.8,94.4c-1.6,0-3.2,0.5-4.4,1.5c-1.3,1.1-2.1,2.7-2.2,4.4h13c0-1.7-0.7-3.2-1.9-4.4
			C227,94.9,225.4,94.4,223.8,94.4z"/>
		<path class="st0" d="M286.4,95.3c-2.3-1.3-5.1-1.3-7.3,0c-1.1,0.7-1.9,1.6-2.5,2.7c-1.2,2.6-1.2,5.6,0,8.2
			c0.6,1.1,1.4,2.1,2.5,2.7c3.2,2,7.5,1,9.5-2.2c0.1-0.2,0.2-0.3,0.3-0.5c1.2-2.6,1.2-5.6,0-8.2C288.4,96.9,287.5,96,286.4,95.3z"/>
		<path class="st0" d="M260.3,95.2c-3.1-1.8-7.1-0.8-9,2.3c-0.1,0.1-0.1,0.2-0.2,0.3c-1.3,2.7-1.3,5.9,0,8.7c0.6,1.1,1.4,2,2.5,2.6
			c1,0.6,2.1,0.9,3.3,0.9c1.2,0,2.3-0.3,3.3-0.9c1.1-0.6,1.9-1.5,2.5-2.6c0.7-1.3,1-2.8,1-4.3c0.1-1.5-0.3-3-0.9-4.3
			C262.2,96.7,261.3,95.8,260.3,95.2z"/>
		<path class="st0" d="M307.6,94.4c-1.6,0-3.2,0.5-4.4,1.5c-1.3,1.1-2.1,2.7-2.2,4.4h13c0-1.7-0.7-3.2-1.9-4.4
			C310.8,94.9,309.2,94.4,307.6,94.4z"/>
		<rect x="142.3" y="43.4" class="st1" width="3" height="29"/>
		<path class="st1" d="M170.3,72.4V60.1c0-3.1-0.7-5.5-2.2-7c-1.6-1.6-3.8-2.4-6-2.3c-1.5,0-3,0.4-4.3,1.2c-1.3,0.7-2.3,1.8-3,3.1
			l-0.2-3.8h-3.3v21h4V61.7c-0.1-2,0.5-4,1.9-5.5c1.2-1.3,2.9-2,4.6-1.9c3.7,0,5.5,2.2,5.5,6.5v11.7H170.3z"/>
		<path class="st1" d="M176.3,72.4h4v-18h5v-3h-5V48c0,0,0-1.8,0.4-2.2c0.6-0.5,1.5-0.7,2.3-0.5h1.3v-3H182c-1.5-0.1-3,0.4-4.2,1.3
			c-1.1,1.1-1.6,2.7-1.4,4.2v3.5h-3v3h3L176.3,72.4z"/>
		<path class="st1" d="M197.9,72.7c1.8,0,3.7-0.4,5.3-1.3c1.6-0.9,2.9-2.2,3.7-3.8c1.8-3.6,1.8-7.8,0-11.5c-0.9-1.6-2.1-2.9-3.7-3.8
			c-1.6-0.9-3.4-1.4-5.3-1.3c-1.8,0-3.7,0.4-5.3,1.3c-1.6,0.9-2.9,2.2-3.7,3.8c-1,1.8-1.4,3.7-1.4,5.7c0,2,0.4,4,1.4,5.7
			c0.8,1.6,2.1,2.9,3.7,3.8C194.3,72.2,196.1,72.7,197.9,72.7z M191.2,61.8c0-1.5,0.3-3,0.9-4.3c1.1-2.2,3.4-3.5,5.8-3.5
			c1.2,0,2.3,0.3,3.3,0.9c1.1,0.6,1.9,1.5,2.5,2.6c0.7,1.3,1,2.8,0.9,4.3c0,1.5-0.3,3-1,4.3c-1.1,2.2-3.4,3.5-5.8,3.5
			c-1.1,0-2.3-0.3-3.3-0.9c-1.1-0.6-1.9-1.5-2.5-2.6C191.5,64.8,191.2,63.3,191.2,61.8z"/>
		<path class="st1" d="M151.2,83.4h-8.9v29h8.9c5.1,0,8.9-1.3,11.3-3.9s3.6-6.1,3.6-10.5c0-4.5-1.2-8.1-3.6-10.7
			S156.3,83.4,151.2,83.4z M160.9,104.1c-0.7,1.7-1.9,3.1-3.6,3.9c-2.1,1-4.4,1.5-6.7,1.4h-5.3v-23h5.3c2.3-0.1,4.6,0.4,6.7,1.4
			c1.6,0.9,2.9,2.3,3.6,4c0.8,2,1.1,4.1,1.1,6.2C162,100.1,161.6,102.1,160.9,104.1z"/>
		<path class="st1" d="M185.6,92.6c-1.6-0.9-3.4-1.4-5.2-1.3c-1.9,0-3.7,0.4-5.4,1.3c-1.5,0.9-2.8,2.2-3.6,3.8
			c-0.9,1.8-1.3,3.7-1.3,5.7c0,2,0.4,3.9,1.3,5.7c0.8,1.6,2.1,2.9,3.6,3.8c1.6,0.9,3.4,1.4,5.3,1.3c2.2,0.1,4.3-0.6,6-1.9
			c1.5-1.2,2.6-2.8,3.2-4.7H186c-0.4,1.1-1.2,2-2.1,2.6c-1.1,0.7-2.3,1-3.6,1c-1.1,0-2.2-0.3-3.1-0.8c-1-0.5-1.9-1.4-2.5-2.3
			c-0.6-1.1-1-2.2-1.1-3.5H190c0-0.8,0-1.2,0-1.5s0-0.6,0-0.9c0-1.7-0.4-3.3-1.2-4.7C188.1,94.7,186.9,93.5,185.6,92.6z
			 M173.6,100.4c0.1-1.7,0.9-3.3,2.2-4.4c1.3-1,2.8-1.5,4.4-1.5c1.6,0,3.2,0.5,4.4,1.6c1.2,1.1,1.9,2.7,1.9,4.4L173.6,100.4z"/>
		<polygon class="st1" points="201.9,108.9 195.6,91.4 191.8,91.4 199.8,112.4 203.9,112.4 211.8,91.4 208.2,91.4 		"/>
		<path class="st1" d="M229.1,92.6c-1.6-0.9-3.4-1.4-5.2-1.3c-1.9,0-3.7,0.4-5.4,1.3c-1.5,0.9-2.8,2.2-3.6,3.8
			c-0.9,1.8-1.3,3.7-1.3,5.7c0,2,0.4,3.9,1.3,5.7c0.8,1.6,2.1,2.9,3.6,3.8c1.6,0.9,3.4,1.4,5.2,1.3c2.2,0.1,4.3-0.6,6-1.9
			c1.5-1.2,2.6-2.8,3.2-4.7h-3.5c-0.4,1.1-1.2,2-2.1,2.6c-1.1,0.7-2.3,1-3.6,1c-1.1,0-2.2-0.3-3.1-0.8c-1-0.5-1.9-1.4-2.5-2.3
			c-0.6-1.1-1-2.2-1.1-3.5h16.4c0-0.8,0-1.2,0-1.5s0-0.6,0-0.9c0-1.7-0.4-3.3-1.2-4.7C231.6,94.7,230.5,93.5,229.1,92.6z
			 M217.1,100.4c0.1-1.7,0.9-3.3,2.2-4.4c1.3-1,2.8-1.5,4.4-1.5c1.6,0,3.2,0.5,4.4,1.6c1.2,1.1,1.9,2.7,1.9,4.4L217.1,100.4z"/>
		<rect x="238.3" y="82.4" class="st1" width="3" height="30"/>
		<path class="st1" d="M262.2,92.6c-3.3-1.8-7.2-1.8-10.5,0c-1.6,0.9-2.8,2.2-3.7,3.8c-1,1.8-1.4,3.7-1.4,5.7c0,2,0.4,4,1.4,5.7
			c0.9,1.6,2.1,2.9,3.7,3.8c3.3,1.8,7.2,1.8,10.5,0c1.6-0.9,2.9-2.2,3.7-3.8c0.9-1.8,1.4-3.7,1.4-5.7c0-2-0.4-4-1.4-5.7
			C265.1,94.8,263.8,93.5,262.2,92.6z M262.7,106.4c-0.6,1.1-1.4,2-2.5,2.6c-1,0.6-2.2,0.9-3.3,0.9c-1.1,0-2.3-0.3-3.3-0.9
			c-1.1-0.6-1.9-1.5-2.5-2.6c-1.3-2.7-1.3-5.9,0-8.7c1.7-3.2,5.7-4.4,9-2.7c0.1,0,0.1,0.1,0.2,0.1c1.1,0.6,1.9,1.5,2.5,2.6
			c0.7,1.3,1,2.8,0.9,4.3C263.7,103.6,263.4,105.1,262.7,106.4z"/>
		<path class="st1" d="M288.6,92.7c-1.6-1-3.5-1.5-5.4-1.4c-1.7-0.1-3.3,0.4-4.7,1.2c-1.1,0.7-2.1,1.6-2.9,2.7l-0.3-3.8h-3v30h3V109
			c0.9,1.2,2,2.2,3.3,2.9c1.4,0.7,3,1,4.5,1c1.9,0,3.8-0.4,5.4-1.4c1.5-0.9,2.8-2.3,3.6-3.8c0.9-1.7,1.3-3.6,1.3-5.6
			c0-1.9-0.4-3.8-1.3-5.6C291.3,95,290.1,93.6,288.6,92.7z M288.9,106.2c-0.6,1.1-1.4,2.1-2.5,2.7c-2.3,1.3-5.1,1.3-7.3,0
			c-1.1-0.7-1.9-1.6-2.5-2.7c-1.2-2.6-1.2-5.6,0-8.2c1.2-2.3,3.6-3.8,6.2-3.7c2.6-0.1,5,1.4,6.2,3.7
			C290.2,100.6,290.2,103.6,288.9,106.2L288.9,106.2z"/>
		<path class="st1" d="M312.8,92.6c-1.6-0.9-3.4-1.4-5.2-1.3c-1.9,0-3.7,0.4-5.4,1.3c-1.5,0.9-2.8,2.2-3.6,3.8
			c-0.9,1.8-1.3,3.7-1.3,5.7c-0.1,2,0.4,3.9,1.3,5.7c0.8,1.6,2.1,2.9,3.6,3.8c1.6,0.9,3.4,1.4,5.3,1.3c2.2,0.1,4.3-0.6,6-1.9
			c1.5-1.2,2.6-2.8,3.2-4.7h-3.5c-0.4,1.1-1.2,2-2.1,2.6c-1.1,0.7-2.3,1-3.6,1c-1.1,0-2.2-0.3-3.1-0.8c-1-0.6-1.9-1.4-2.5-2.3
			c-0.6-1.1-1-2.2-1.1-3.5h16.5c0-0.8,0-1.2,0-1.5s0-0.6,0-0.9c0-1.7-0.4-3.3-1.2-4.7C315.4,94.7,314.2,93.5,312.8,92.6z
			 M300.9,100.4c0.1-1.7,0.9-3.3,2.2-4.4c1.3-1,2.8-1.5,4.4-1.5c1.6-0.1,3.2,0.5,4.4,1.6c1.2,1.1,1.9,2.7,1.9,4.4L300.9,100.4z"/>
		<path class="st1" d="M325.3,95.1l-0.3-3.8h-2.7v21h3v-11.3c-0.1-1.4,0.3-2.8,1-4c0.6-1,1.5-1.7,2.6-2.1c1.1-0.4,2.3-0.6,3.5-0.6h1
			v-3.5c-1.7-0.1-3.5,0.3-5,1.2C327,92.7,326,93.8,325.3,95.1z"/>
		<path class="st1" d="M351.5,102.6c-0.7-0.8-1.7-1.4-2.7-1.7c-1.1-0.4-2.3-0.7-3.5-1c-1.2-0.2-2.3-0.6-3.4-1.2
			c-0.7-0.3-1.2-1.1-1.3-1.9c0-0.8,0.4-1.5,1-2c0.8-0.6,1.8-0.8,2.8-0.8c1-0.1,2.1,0.3,2.9,0.9c0.7,0.6,1.2,1.4,1.3,2.4h3.3
			c-0.1-1.8-1-3.4-2.3-4.5c-1.5-1.1-3.3-1.7-5.1-1.6c-1.9-0.1-3.8,0.5-5.3,1.7c-1.3,1-2,2.6-1.9,4.2c0,1.1,0.3,2.1,1.1,2.9
			c0.8,0.8,1.7,1.3,2.7,1.7c1,0.4,2.1,0.7,3.2,0.9c1.2,0.2,2.5,0.6,3.6,1.1c0.9,0.4,1.4,1.4,1.3,2.4c0,0.8-0.4,1.6-1,2.1
			c-0.9,0.7-2,1-3.1,0.9c-1.3,0.1-2.6-0.3-3.6-1.1c-0.8-0.7-1.4-1.6-1.6-2.7h-3.4c0.2,1.9,1.2,3.7,2.8,4.9c1.7,1.2,3.8,1.8,5.9,1.7
			c2,0.1,4-0.5,5.5-1.7c1.3-1.1,2.1-2.7,2-4.4C352.6,104.7,352.2,103.5,351.5,102.6z"/>
		<path class="st1" d="M114.4,83.3c-2.7-4.2-5.3-8.4-7.9-12.6c-4.2-6.6-8.4-13.2-12.6-19.8c-4.3-6.8-8.6-13.6-12.9-20.4
			c-3.1-4.9-6.2-9.8-9.3-14.7c-1.8-2.9-3.6-5.8-5.5-8.6c-1.3-1.9-2.8-3.8-4.3-5.6c-1.4-1.6-3.7-2-5.5-0.9c-1.4,0.9-2.2,2.5-2.1,4.1
			c0,35.5,0,71.1,0,106.7v1h0.8c17,0,33.9,0,50.9,0c4.4,0,8.5-2.3,10.8-6c2.7-4.1,3.5-9.1,2.2-13.8
			C118.2,89.1,116.3,86.2,114.4,83.3z M80.9,105.7c-11,0-19.9-8.9-19.9-19.8s8.9-19.9,19.8-19.9s19.9,8.9,19.9,19.8c0,0,0,0,0,0
			C100.7,96.7,91.8,105.6,80.9,105.7z"/>
		<path class="st1" d="M47.3,33.9c-0.1-1.3-0.9-2.5-2.1-3c-1.2-0.5-2.6,0-3.4,1.1c-0.9,1.2-1.7,2.4-2.5,3.7
			c-2.6,4.1-5.2,8.2-7.8,12.3l-9.6,15.3c-2.1,3.4-4.3,6.8-6.4,10.3c-3.2,5.1-6.4,10.1-9.5,15.2c-1.7,2.7-3.4,5.4-4.8,8.2
			c-3.2,6,0.9,15.2,9.8,15.4c11.8,0.2,23.6,0,35.4,0h1v-78C47.3,34.2,47.3,34.1,47.3,33.9z"/>
		<path class="st1" d="M40.5,12.8c-4,0-7.3,3.2-7.3,7.3s3.2,7.3,7.3,7.3c4,0,7.2-3.2,7.3-7.2c0.1-4-3.1-7.3-7.1-7.4
			C40.7,12.8,40.6,12.7,40.5,12.8z"/>
	</g>
</g>
</svg>
